<?xml version="1.0" encoding="UTF-8"?>
<svg xmlns="http://www.w3.org/2000/svg" xmlns:xlink="http://www.w3.org/1999/xlink" viewBox="0 0 20 20" width="20px" height="20px">
<g id="surface106887129">
<path style=" stroke:none;fill-rule:nonzero;fill:rgb(13.725491%,47.450981%,91.764706%);fill-opacity:1;" d="M 8.398438 1.199219 C 4.640625 1.199219 1.601562 4.242188 1.601562 8 C 1.601562 11.757812 4.640625 14.800781 8.398438 14.800781 C 9.742188 14.800781 10.984375 14.40625 12.039062 13.738281 L 16.949219 18.648438 L 18.648438 16.949219 L 13.800781 12.113281 C 14.671875 10.96875 15.199219 9.550781 15.199219 8 C 15.199219 4.242188 12.160156 1.199219 8.398438 1.199219 Z M 8.398438 2.800781 C 11.28125 2.800781 13.601562 5.121094 13.601562 8 C 13.601562 10.878906 11.28125 13.199219 8.398438 13.199219 C 5.519531 13.199219 3.199219 10.878906 3.199219 8 C 3.199219 5.121094 5.519531 2.800781 8.398438 2.800781 Z M 8.398438 2.800781 "/>
</g>
</svg>
